<svg width="300" height="121" viewBox="0 0 300 121" fill="none" xmlns="http://www.w3.org/2000/svg">
<path d="M24.8833 109.942C24.2326 111.671 23.3051 113.121 22.1006 114.291C20.8821 115.431 19.5111 116.301 17.9874 116.899C16.4722 117.475 14.8951 117.774 13.256 117.799C11.5947 117.815 10.0042 117.542 8.48432 116.979C6.89748 116.392 5.49729 115.545 4.28374 114.439C3.0562 113.303 2.07559 112.017 1.34188 110.584C0.594092 109.12 0.158858 107.569 0.0362949 105.933C-0.100247 104.265 0.148458 102.589 0.782521 100.905C1.42497 99.1973 2.35538 97.7737 3.57374 96.6335C4.8006 95.4712 6.18279 94.6063 7.72042 94.039C9.25805 93.4716 10.8463 93.1756 12.4854 93.151C14.1243 93.1264 15.7037 93.3954 17.2235 93.9581C18.7881 94.5374 20.1883 95.3842 21.4241 96.4986C22.6377 97.6046 23.6183 98.8897 24.3661 100.354C25.0998 101.787 25.5238 103.334 25.638 104.992C25.7606 106.629 25.5091 108.279 24.8833 109.942ZM20.8057 108.394C21.2228 107.286 21.3706 106.217 21.249 105.186C21.105 104.148 20.7614 103.199 20.2185 102.342C19.6531 101.476 18.9553 100.725 18.1251 100.089C17.2808 99.4227 16.3781 98.9117 15.4171 98.5558C14.3889 98.1751 13.3318 97.9732 12.2456 97.95C11.1677 97.9045 10.1474 98.0445 9.18458 98.3699C8.23013 98.6733 7.36671 99.1746 6.59432 99.8737C5.83031 100.551 5.24803 101.421 4.84757 102.485C4.42218 103.617 4.28139 104.7 4.42542 105.739C4.55536 106.747 4.90304 107.684 5.46844 108.551C6.01136 109.408 6.69384 110.166 7.51578 110.824C8.34599 111.459 9.25291 111.959 10.2363 112.323C11.2644 112.705 12.3174 112.918 13.3952 112.963C14.4731 113.009 15.4893 112.879 16.4438 112.576C17.4066 112.25 18.2699 111.75 19.034 111.072C19.8063 110.373 20.397 109.48 20.8057 108.394ZM15.7358 107.048L17.3627 102.724L29.1081 98.207L27.4813 102.531L15.7358 107.048Z" fill="#172623"/>
<path d="M37.2739 85.7494C36.1976 87.4542 34.9965 88.7324 33.6706 89.584C32.3372 90.4031 30.9308 90.8697 29.4513 90.9837C27.9845 91.0778 26.5066 90.8995 25.0176 90.4492C23.5084 89.9863 22.0562 89.3215 20.661 88.4548L9.68222 81.6345L12.3033 77.483L23.2821 84.3032C24.1717 84.8559 25.0918 85.3158 26.0423 85.6828C26.9852 86.0173 27.917 86.1912 28.8374 86.2046C29.7579 86.2179 30.6192 86.0131 31.4212 85.5899C32.2232 85.1667 32.9344 84.4637 33.5549 83.4809C34.188 82.4781 34.5214 81.5265 34.555 80.626C34.5812 79.6929 34.3809 78.8285 33.9543 78.0329C33.5403 77.2174 32.9759 76.4619 32.2609 75.7664C31.5256 75.0583 30.7233 74.4342 29.8539 73.8941L18.8751 67.0739L21.4772 62.9524L32.456 69.7726C33.9321 70.6895 35.203 71.7304 36.2691 72.8953C37.3478 74.0401 38.142 75.3014 38.6515 76.6788C39.1535 78.0238 39.3141 79.4639 39.1332 80.9989C38.932 82.5213 38.3122 84.1048 37.2739 85.7494Z" fill="#172623"/>
<path d="M32.4636 50.6154L35.884 46.9843L60.825 57.4212L57.3558 61.1042L51.1153 58.5266L45.0565 64.9588L48.0964 70.9343L44.6273 74.6173L32.4636 50.6154ZM47.9682 56.8242L37.9129 52.2653L43.082 62.0116L47.9682 56.8242Z" fill="#172623"/>
<path d="M63.8951 55.4623L48.6308 35.315L52.5785 32.372L65.2415 49.0858L75.5971 41.3658L78.1985 44.7993L63.8951 55.4623Z" fill="#172623"/>
<path d="M82.1762 42.9509L69.7555 20.965L74.0635 18.5703L86.4842 40.5562L82.1762 42.9509Z" fill="#172623"/>
<path d="M104.079 10.319L96.5163 13.2603L104.21 32.7252L99.6458 34.5004L91.9521 15.0354L84.3894 17.9767L82.8089 13.978L102.498 6.32028L104.079 10.319Z" fill="#172623"/>
<path d="M113.484 3.75863L121.948 14.1828L125.875 1.32573L131.106 0.298816L125.259 18.1644L126.983 26.8L122.173 27.7442L120.436 19.039L108.218 4.79247L113.484 3.75863Z" fill="#172623"/>
<path d="M139.381 17.6463L139.218 13.3543L150.053 12.9487L150.216 17.2409L139.381 17.6463Z" fill="#172623"/>
<path d="M157.52 25.0513L160.302 0L177.269 1.8537L176.795 6.12294L164.737 4.80556L164.02 11.2624L174.051 12.3584L173.611 16.3101L163.582 15.2142L162.43 25.5875L157.52 25.0513Z" fill="#172623"/>
<path d="M189.5 31.252C187.719 30.7156 186.203 29.8878 184.95 28.7684C183.719 27.6558 182.757 26.3641 182.06 24.893C181.393 23.4061 180.996 21.8521 180.869 20.231C180.749 18.5873 180.925 16.9955 181.396 15.4558C181.888 13.848 182.653 12.409 183.69 11.1386C184.757 9.85242 185.988 8.80139 187.385 7.98552C188.812 7.15389 190.344 6.62632 191.983 6.4028C193.652 6.16365 195.354 6.3053 197.09 6.82788C198.846 7.35734 200.337 8.18962 201.56 9.32474C202.806 10.4667 203.763 11.7812 204.43 13.2681C205.096 14.755 205.493 16.309 205.621 17.93C205.747 19.5511 205.575 21.1316 205.104 22.6713C204.619 24.2563 203.854 25.6954 202.811 26.9885C201.773 28.2589 200.542 29.31 199.115 30.1416C197.718 30.9575 196.189 31.4737 194.526 31.6903C192.888 31.9138 191.212 31.7677 189.5 31.252ZM186.19 16.8998C185.871 17.9414 185.722 18.9971 185.744 20.0671C185.765 21.137 185.955 22.1463 186.313 23.0949C186.701 24.0278 187.259 24.8514 187.987 25.5655C188.746 26.2639 189.684 26.7816 190.803 27.1185C191.944 27.4623 193.029 27.5418 194.058 27.3571C195.095 27.1498 196.026 26.7505 196.856 26.1594C197.692 25.5457 198.404 24.808 198.992 23.9464C199.609 23.069 200.068 22.1434 200.365 21.1698C200.685 20.1282 200.818 19.0803 200.766 18.0261C200.745 16.9562 200.541 15.9548 200.154 15.0219C199.796 14.0732 199.237 13.2497 198.478 12.5513C197.749 11.8371 196.838 11.315 195.742 10.985C194.578 10.6344 193.478 10.5626 192.442 10.77C191.436 10.9616 190.519 11.3529 189.689 11.944C188.86 12.5351 188.14 13.258 187.529 14.1128C186.941 14.9744 186.495 15.9034 186.19 16.8998Z" fill="#172623"/>
<path d="M209.959 24.8415C210.689 23.4844 211.645 22.2868 212.825 21.2487C214.038 20.2007 215.405 19.3952 216.924 18.8318C218.455 18.2475 220.073 18.0043 221.779 18.1022C223.494 18.1792 225.227 18.68 226.973 19.6048C229.035 20.6967 230.573 22.087 231.584 23.7758C232.616 25.4758 233.114 27.241 233.075 29.0715L228.499 29.5861C228.569 28.5505 228.428 27.631 228.076 26.8276C227.736 26.0035 227.268 25.3136 226.675 24.7581C226.093 24.1816 225.465 23.7151 224.791 23.3586C223.697 22.7792 222.621 22.4915 221.564 22.4954C220.529 22.5105 219.547 22.728 218.617 23.1482C217.688 23.5684 216.851 24.1444 216.106 24.8764C215.381 25.6195 214.783 26.4296 214.312 27.3064C213.784 28.2877 213.431 29.3212 213.252 30.4069C213.084 31.4717 213.094 32.5096 213.281 33.5202C213.499 34.5211 213.896 35.442 214.471 36.283C215.079 37.1142 215.867 37.786 216.835 38.2985C217.529 38.6663 218.297 38.9247 219.135 39.0738C219.974 39.223 220.834 39.2086 221.714 39.0307C222.594 38.8527 223.416 38.4562 224.179 37.8411L226.651 41.7651C225.615 42.6377 224.382 43.1928 222.956 43.4305C221.552 43.6793 220.122 43.6733 218.667 43.4126C217.212 43.1519 215.873 42.6986 214.653 42.0523C213.053 41.2055 211.765 40.1076 210.787 38.7584C209.82 37.3885 209.146 35.9044 208.761 34.3063C208.409 32.6984 208.325 31.0711 208.507 29.4243C208.723 27.7679 209.207 26.2403 209.959 24.8415Z" fill="#172623"/>
<path d="M234.931 55.8862C233.358 54.6179 232.226 53.2791 231.536 51.8695C230.879 50.4565 230.584 49.0148 230.651 47.5443C230.737 46.0887 231.096 44.6556 231.729 43.2448C232.377 41.8155 233.22 40.4673 234.258 39.1998L242.425 29.2259L246.258 32.3143L238.09 42.2884C237.429 43.0965 236.857 43.9461 236.372 44.8369C235.923 45.7242 235.634 46.6202 235.508 47.5248C235.383 48.4293 235.482 49.3023 235.808 50.1437C236.133 50.9851 236.749 51.7713 237.656 52.5023C238.582 53.2484 239.494 53.693 240.39 53.8365C241.321 53.9763 242.21 53.885 243.059 53.5624C243.925 53.2546 244.749 52.7913 245.533 52.1726C246.332 51.5354 247.054 50.8218 247.701 50.032L255.868 40.0581L259.674 43.1242L251.506 53.0981C250.408 54.439 249.211 55.5629 247.915 56.47C246.638 57.3919 245.278 58.0193 243.838 58.3524C242.431 58.6821 240.971 58.6639 239.457 58.2979C237.958 57.9135 236.45 57.1096 234.931 55.8862Z" fill="#172623"/>
<path d="M270.841 65.8575C270.86 65.6242 270.832 65.2441 270.757 64.7176C270.698 64.2089 270.559 63.6269 270.343 62.9712C270.142 62.3337 269.875 61.6739 269.543 60.9921C269.227 60.2948 268.824 59.6575 268.329 59.08C267.465 58.0693 266.618 57.4631 265.789 57.2612C264.975 57.0774 264.222 57.2764 263.531 57.8581C263.003 58.3021 262.723 58.8165 262.692 59.4016C262.661 59.9867 262.813 60.6959 263.151 61.5293C263.488 62.3627 263.946 63.3738 264.524 64.5626C265.296 66.0861 265.847 67.4993 266.179 68.8023C266.545 70.1082 266.573 71.3108 266.262 72.4105C265.984 73.5128 265.254 74.5615 264.072 75.5565C263.034 76.429 261.981 76.9897 260.911 77.2383C259.86 77.4716 258.821 77.4458 257.795 77.1608C256.769 76.8757 255.785 76.4011 254.841 75.7365C253.915 75.0568 253.044 74.2387 252.225 73.2823C251.408 72.3257 250.69 71.2851 250.072 70.1603C249.454 69.0354 248.949 67.8778 248.557 66.6874C248.183 65.4816 247.943 64.2868 247.838 63.103L252.497 62.0217C252.472 62.3219 252.501 62.7943 252.583 63.439C252.684 64.0684 252.851 64.7956 253.088 65.6208C253.342 66.4307 253.68 67.264 254.099 68.1209C254.52 68.9778 255.039 69.7672 255.656 70.489C256.52 71.4996 257.349 72.1212 258.142 72.3537C258.935 72.5862 259.65 72.4345 260.287 71.8988C260.869 71.4088 261.147 70.8187 261.119 70.128C261.091 69.4374 260.879 68.6226 260.484 67.6837C260.106 66.7295 259.629 65.6246 259.057 64.3691C258.368 62.8692 257.886 61.5371 257.61 60.373C257.352 59.1935 257.381 58.1297 257.697 57.1816C258.012 56.2334 258.661 55.3461 259.643 54.5194C260.971 53.402 262.343 52.7749 263.759 52.6383C265.209 52.5046 266.617 52.7788 267.982 53.4607C269.366 54.1274 270.613 55.1105 271.724 56.4099C272.496 57.3122 273.121 58.2445 273.6 59.2069C274.094 60.1874 274.479 61.1673 274.753 62.1467C275.028 63.1261 275.212 64.0562 275.309 64.9371L270.841 65.8575Z" fill="#172623"/>
<path d="M273.664 97.144L269.932 99.323L260.981 84.2424L282.876 71.4563L291.663 86.2616L287.932 88.4406L281.65 77.8567L276.377 80.9361L281.806 90.0824L278.351 92.0993L272.923 82.9531L267.218 86.2847L273.664 97.144Z" fill="#172623"/>
<path d="M271.992 104.091L295.855 95.4399L299.024 104.041C299.974 106.619 300.23 108.971 299.793 111.094C299.379 113.21 298.424 115.03 296.928 116.555C295.455 118.072 293.621 119.227 291.425 120.024C289.005 120.901 286.723 121.187 284.578 120.881C282.433 120.575 280.544 119.723 278.912 118.324C277.287 116.948 276.037 115.071 275.161 112.693L271.992 104.091ZM289.718 115.389C291.264 114.829 292.517 114.06 293.477 113.082C294.46 112.096 295.084 110.962 295.349 109.682C295.637 108.394 295.506 107.005 294.957 105.516L293.483 101.515L277.753 107.217L279.227 111.218C279.784 112.73 280.591 113.886 281.648 114.687C282.728 115.48 283.96 115.927 285.344 116.03C286.759 116.148 288.217 115.934 289.718 115.389Z" fill="#172623"/>
</svg>
