<svg width="281" height="134" viewBox="0 0 281 134" fill="none" xmlns="http://www.w3.org/2000/svg">
<path d="M24.41 126.481L0 124.989L0.6807 115.378C0.754575 114.335 1.05162 113.391 1.57184 112.546C2.09205 111.702 2.76442 110.984 3.58894 110.393C4.41496 109.78 5.32211 109.323 6.31039 109.02C7.29867 108.717 8.29705 108.596 9.30554 108.657C10.6807 108.741 11.9661 109.119 13.1616 109.791C14.357 110.463 15.3075 111.344 16.0129 112.434C16.7183 113.525 17.0205 114.784 16.9195 116.21L16.5396 121.574L24.7221 122.074L24.41 126.481ZM12.3796 121.32L12.7414 116.211C12.7791 115.679 12.6526 115.19 12.3618 114.745C12.0711 114.3 11.6368 113.931 11.059 113.639C10.4582 113.346 9.76822 113.175 8.98893 113.128C8.14088 113.076 7.40835 113.181 6.79131 113.443C6.17579 113.683 5.70246 114.028 5.37133 114.478C5.04171 114.907 4.85805 115.388 4.82036 115.92L4.47209 120.837L12.3796 121.32Z" fill="#172623"/>
<path d="M26.0674 104.851L2.27732 99.5594L5.40265 89.9398C5.72779 88.939 6.24977 88.0697 6.96858 87.3316C7.69404 86.5732 8.53605 85.9721 9.49461 85.5283C10.4598 85.0641 11.4646 84.7729 12.509 84.6548C13.56 84.5163 14.5769 84.5563 15.5598 84.7749C16.565 84.9985 17.4836 85.378 18.3157 85.9135C19.132 86.4235 19.7902 87.0517 20.2902 87.798C20.7903 88.5443 21.1008 89.358 21.2217 90.239L31.7806 87.2658L30.2677 91.9224L20.8398 94.6216L19.4663 98.8493L27.441 100.623L26.0674 104.851ZM15.4119 97.9475L17.1338 92.6475C17.3063 92.1165 17.2914 91.6095 17.089 91.1265C16.8643 90.6385 16.5014 90.2074 16.0003 89.8332C15.4991 89.4589 14.8911 89.1923 14.1763 89.0333C13.4168 88.8644 12.7114 88.8608 12.06 89.0225C11.3863 89.1793 10.8089 89.445 10.3279 89.8198C9.85348 90.1742 9.53332 90.6067 9.36744 91.1173L7.70524 96.2334L15.4119 97.9475Z" fill="#172623"/>
<path d="M35.7621 80.1592L13.3052 71.1491L15.6457 67.3051L38.1026 76.3153L35.7621 80.1592Z" fill="#172623"/>
<path d="M30.1742 59.9251L43.2548 68.0082L40.0968 71.3095L19.7302 58.724L22.2474 56.0925L44.0705 55.6087L30.6744 47.3306L33.8324 44.0293L54.1703 56.5971L51.5387 59.3482L30.1742 59.9251Z" fill="#172623"/>
<path d="M48.4066 43.0999C47.3408 42.1288 46.5107 41.0328 45.9164 39.8118C45.3241 38.5631 45.0229 37.2694 45.013 35.9308C44.9867 34.5773 45.3244 33.2599 46.026 31.9787C46.7113 30.6826 47.816 29.5027 49.3402 28.439C51.1398 27.1831 53.044 26.4214 55.0529 26.1538C57.0802 25.8735 58.9808 26.0245 60.755 26.6067L59.6308 30.2802C58.6443 29.9134 57.6963 29.7439 56.7866 29.772C55.8605 29.7851 55.0207 29.9359 54.2671 30.2243C53.4972 30.4979 52.8184 30.8397 52.2308 31.2498C51.2759 31.9162 50.6125 32.6561 50.2407 33.4697C49.8872 34.2704 49.7506 35.0913 49.8306 35.9324C49.9107 36.7736 50.1757 37.5912 50.6257 38.3852C51.094 39.1665 51.6726 39.8708 52.3612 40.4982C53.1319 41.2004 54.0157 41.784 55.0127 42.2491C55.9932 42.6992 57.0102 43.0053 58.0635 43.1672C59.1188 43.3013 60.1593 43.2743 61.185 43.0861C62.2128 42.8701 63.149 42.4674 63.9937 41.8779C64.5997 41.455 65.1246 40.9435 65.5686 40.3434C66.0126 39.7434 66.3041 39.0782 66.4431 38.348C66.5821 37.6179 66.4869 36.8664 66.1576 36.0937L70.8689 35.378C71.3524 36.4389 71.4567 37.5533 71.182 38.7212C70.9257 39.8763 70.4115 40.9738 69.6397 42.0137C68.8678 43.0537 67.9493 43.9453 66.8842 44.6886C65.4886 45.6626 63.9582 46.3217 62.293 46.666C60.6114 46.9953 58.9219 47.0663 57.2246 46.879C55.5291 46.6639 53.9098 46.2375 52.3665 45.5996C50.8252 44.934 49.5052 44.1008 48.4066 43.0999Z" fill="#172623"/>
<path d="M79.6967 36.1516L65.9848 17.3363L70.2543 15.3927L83.9662 34.208L79.6967 36.1516Z" fill="#172623"/>
<path d="M92.4302 31.1248L83.2813 10.0536L93.2585 7.42496C94.3413 7.13968 95.4216 7.07554 96.4994 7.23254C97.5772 7.38954 98.5937 7.71706 99.5487 8.2151C100.526 8.70731 101.383 9.31942 102.119 10.0514C102.855 10.7834 103.413 11.5847 103.791 12.4553C104.306 13.6424 104.486 14.8516 104.332 16.0831C104.177 17.3145 103.704 18.4092 102.913 19.3671C102.123 20.3251 100.987 20.9991 99.5063 21.3892L93.9377 22.8564L97.0045 29.9197L92.4302 31.1248ZM92.3785 19.2654L97.682 17.8681C98.2344 17.7225 98.6715 17.453 98.9932 17.0596C99.3149 16.6662 99.4966 16.1773 99.5384 15.593C99.5717 14.989 99.4422 14.3506 99.1502 13.6779C98.8323 12.9458 98.407 12.3633 97.8743 11.9304C97.3637 11.4917 96.8094 11.2078 96.2116 11.0787C95.6359 10.9437 95.0718 10.949 94.5194 11.0946L89.4148 12.4395L92.3785 19.2654Z" fill="#172623"/>
<path d="M114.322 24.3721L110.384 1.94842L115.113 1.49138L118.38 20.0935L130.786 18.8946L131.457 22.7161L114.322 24.3721Z" fill="#172623"/>
<path d="M156.708 19.8428L156.434 23.7065L139.484 22.671L141.09 0L157.73 1.01657L157.456 4.88022L145.561 4.1535L145.174 9.6137L155.454 10.2417L155.201 13.818L144.921 13.19L144.503 19.0972L156.708 19.8428Z" fill="#172623"/>
<path d="M166.636 19.3984L167.84 15.6915L177.993 17.9496L176.788 21.6565L166.636 19.3984Z" fill="#172623"/>
<path d="M182.701 29.7545L194.743 9.97788L202.904 13.252C205.35 14.2334 207.124 15.4997 208.226 17.0509C209.339 18.5836 209.849 20.267 209.755 22.101C209.673 23.9166 209.078 25.7342 207.97 27.5541C206.749 29.5596 205.233 31.1232 203.421 32.245C201.61 33.3668 199.623 34.002 197.46 34.1508C195.317 34.3079 193.118 33.9339 190.862 33.0286L182.701 29.7545ZM203.574 25.7901C204.354 24.5088 204.774 23.2796 204.835 22.1025C204.907 20.9068 204.612 19.8408 203.948 18.9047C203.297 17.95 202.264 17.1892 200.851 16.6224L197.056 15.0995L189.118 28.1354L192.914 29.6583C194.348 30.2336 195.73 30.4415 197.06 30.282C198.402 30.104 199.625 29.6244 200.731 28.8432C201.868 28.052 202.816 27.0343 203.574 25.7901Z" fill="#172623"/>
<path d="M209.852 43.2617L226.099 26.2767L235.106 31.8426C236.043 32.4217 236.751 33.113 237.23 33.9164C237.728 34.7317 238.005 35.5878 238.06 36.4845C238.134 37.3931 238.004 38.2769 237.669 39.1358C237.353 40.0065 236.86 40.7927 236.189 41.4945C235.502 42.2121 234.685 42.8114 233.739 43.2921C232.826 43.7687 231.856 44.0829 230.829 44.2346C229.801 44.3863 228.785 44.3673 227.78 44.1775L226.317 53.4365L221.957 50.7421L223.215 42.4605L219.257 40.0143L213.81 45.7079L209.852 43.2617ZM222.025 37.1197L226.988 40.1863C227.485 40.4935 228.039 40.6457 228.651 40.6429C229.277 40.624 229.904 40.4782 230.53 40.2053C231.156 39.9325 231.713 39.5409 232.201 39.0305C232.72 38.4883 233.036 37.9351 233.15 37.3709C233.279 36.7908 233.247 36.2512 233.055 35.752C232.883 35.2646 232.557 34.8732 232.079 34.5777L227.289 31.6175L222.025 37.1197Z" fill="#172623"/>
<path d="M229.248 62.4884L248.805 48.8398L252.199 51.9322L232.642 65.5808L229.248 62.4884Z" fill="#172623"/>
<path d="M261.168 66.6234L247.984 79.4011L268.546 76.7466L271.346 80.5892L244.185 83.4599L241.616 79.9353L258.368 62.7809L261.168 66.6234Z" fill="#172623"/>
<path d="M259.19 104.851L255.179 105.907L248.826 91.2762L272.36 85.0758L278.597 99.4399L274.586 100.497L270.128 90.228L264.46 91.7214L268.313 100.595L264.6 101.573L260.747 92.6995L254.615 94.3151L259.19 104.851Z" fill="#172623"/>
<path d="M269.444 117.386L253.817 118.896L253.052 114.538L277.383 112.187L277.993 115.661L263.991 128.801L279.995 127.255L280.76 131.613L256.463 133.961L255.825 130.329L269.444 117.386Z" fill="#172623"/>
</svg>
