<svg width="284" height="120" viewBox="0 0 284 120" fill="none" xmlns="http://www.w3.org/2000/svg">
<path d="M6.03975 92.7596L27.465 100.32L26.079 104.479L16.9355 101.253L13.6779 111.028L22.8213 114.255L21.4252 118.444L0 110.884L1.39612 106.694L10.0567 109.75L13.3144 99.9748L4.65374 96.9188L6.03975 92.7596Z" fill="#172623"/>
<path d="M30.0698 95.401L9.97733 84.7947L11.9475 80.8426L32.0399 91.4488L30.0698 95.401Z" fill="#172623"/>
<path d="M41.0639 76.7614C40.2277 77.9728 39.1928 78.9466 37.9591 79.6826C36.7376 80.4011 35.4201 80.8645 34.0066 81.0728C32.588 81.251 31.1528 81.1529 29.7009 80.7785C28.2491 80.4041 26.8601 79.7322 25.534 78.7629C24.2767 77.8439 23.2545 76.7533 22.4673 75.4912C21.6629 74.2164 21.1235 72.858 20.8492 71.416C20.5748 69.974 20.5783 68.5237 20.8595 67.0651C21.1408 65.6066 21.7298 64.2277 22.6266 62.9285C23.8385 61.1728 25.245 59.9424 26.846 59.2371C28.442 58.5018 30.0609 58.2587 31.7028 58.5079L31.7938 62.6555C30.5538 62.4623 29.3957 62.6196 28.3196 63.1274C27.2557 63.6177 26.3783 64.3632 25.6875 65.3639C25.1422 66.154 24.8089 66.9934 24.6878 67.8822C24.5666 68.771 24.6266 69.6601 24.8677 70.5496C25.1089 71.439 25.5089 72.2861 26.0677 73.0908C26.6386 73.8779 27.3374 74.5736 28.1641 75.1778C29.0425 75.8199 29.9429 76.2799 30.8652 76.5578C31.7997 76.8182 32.7122 76.9041 33.6027 76.8153C34.5053 76.709 35.3504 76.4419 36.1382 76.0139C36.9087 75.5733 37.5727 74.9493 38.1302 74.1416C38.7846 73.1936 39.1676 72.1132 39.2792 70.9004C39.4029 69.6701 39.2603 68.3375 38.8514 66.9028L42.3649 69.4709C42.9397 72.242 42.506 74.6722 41.0639 76.7614ZM37.7137 66.4675L35.1142 70.2334L32.5049 68.3262L37.1768 61.558L46.6064 68.4504L44.5341 71.4526L37.7137 66.4675Z" fill="#172623"/>
<path d="M47.9327 34.7955L63.4124 51.4262L60.2901 54.5036L53.684 47.4063L46.3454 54.6393L52.9515 61.7366L49.8064 64.8365L34.3267 48.2059L37.4718 45.106L43.7291 51.8285L51.0677 44.5955L44.8104 37.8729L47.9327 34.7955Z" fill="#172623"/>
<path d="M67.5565 48.3801L55.1495 29.3469L58.7838 26.8383L69.0764 42.6279L78.6098 36.0474L80.7242 39.2911L67.5565 48.3801Z" fill="#172623"/>
<path d="M77.3086 15.6096L86.6834 23.0349L87.5516 10.8473L91.8752 8.83716L90.3323 25.8545L93.5228 33.1209L89.5475 34.9692L86.3312 27.6441L72.956 17.6333L77.3086 15.6096Z" fill="#172623"/>
<path d="M102.487 22.3107L101.466 18.5757L110.78 15.8798L111.801 19.6148L102.487 22.3107Z" fill="#172623"/>
<path d="M129.33 23.7162C127.678 23.9114 126.138 23.771 124.711 23.295C123.306 22.8166 122.055 22.0942 120.96 21.128C119.884 20.1381 119.005 18.9959 118.324 17.7016C117.641 16.386 117.219 15.0073 117.058 13.5656C116.89 12.0603 117.006 10.5966 117.406 9.17464C117.824 7.72897 118.461 6.41854 119.318 5.24337C120.193 4.04449 121.263 3.05882 122.53 2.28636C123.815 1.49019 125.262 0.997043 126.872 0.806913C128.504 0.614282 130.023 0.767792 131.431 1.26744C132.861 1.76459 134.113 2.50813 135.19 3.49805C136.266 4.48798 137.145 5.63013 137.826 6.92451C138.507 8.21889 138.927 9.58694 139.088 11.0287C139.254 12.5128 139.138 13.9765 138.741 15.4196C138.341 16.8416 137.704 18.152 136.829 19.3509C135.972 20.5261 134.9 21.5011 133.613 22.2761C132.347 23.0486 130.919 23.5286 129.33 23.7162ZM121.507 13.0402C121.616 14.0155 121.869 14.9415 122.268 15.8182C122.666 16.6948 123.181 17.4611 123.812 18.1169C124.462 18.749 125.213 19.2295 126.066 19.5585C126.937 19.8638 127.891 19.9551 128.93 19.8325C129.989 19.7074 130.908 19.3841 131.687 18.8625C132.464 18.3197 133.087 17.6553 133.558 16.8694C134.026 16.0623 134.348 15.1973 134.524 14.2743C134.719 13.3275 134.765 12.3984 134.664 11.4867C134.555 10.5114 134.292 9.59726 133.875 8.74431C133.477 7.86765 132.953 7.11326 132.302 6.48114C131.671 5.82532 130.92 5.34478 130.049 5.03951C129.197 4.71054 128.262 4.60609 127.245 4.72617C126.164 4.85376 125.236 5.18896 124.459 5.73176C123.701 6.25087 123.087 6.90337 122.617 7.68928C122.146 8.47519 121.813 9.3309 121.615 10.2564C121.439 11.1794 121.403 12.1073 121.507 13.0402Z" fill="#172623"/>
<path d="M144.322 22.6647L145.906 0L155.927 0.741796C156.969 0.818968 157.912 1.10265 158.754 1.59285C159.618 2.08463 160.344 2.71593 160.931 3.48674C161.54 4.25913 161.984 5.10483 162.262 6.02385C162.561 6.94445 162.678 7.87293 162.612 8.80931C162.545 9.76698 162.31 10.6801 161.908 11.5487C161.527 12.3976 161.006 13.1291 160.343 13.7432C159.68 14.3572 158.92 14.8144 158.065 15.1148L162.639 24.0207L157.789 23.6616L153.661 15.7193L149.257 15.3932L148.726 22.9907L144.322 22.6647ZM149.527 11.5307L155.048 11.9394C155.601 11.9803 156.101 11.8569 156.549 11.5692C156.998 11.2602 157.37 10.8385 157.664 10.3041C157.958 9.76965 158.129 9.16194 158.176 8.48094C158.227 7.75737 158.122 7.11855 157.861 6.56446C157.602 5.9891 157.25 5.52448 156.804 5.17061C156.379 4.81831 155.901 4.62248 155.369 4.58311L150.04 4.18858L149.527 11.5307Z" fill="#172623"/>
<path d="M175.435 27.6074C174.013 27.2266 172.736 26.5755 171.605 25.6542C170.495 24.7385 169.583 23.6442 168.871 22.3714C168.185 21.0834 167.746 19.6852 167.556 18.1767C167.365 16.6681 167.471 15.1176 167.874 13.5251C168.256 12.0153 168.882 10.6703 169.753 9.49018C170.629 8.28934 171.679 7.31191 172.904 6.55788C174.129 5.80386 175.463 5.31114 176.908 5.07974C178.353 4.84834 179.838 4.93685 181.363 5.34526C183.423 5.89716 185.073 6.8137 186.311 8.09488C187.575 9.36089 188.395 10.8171 188.77 12.4635L184.99 13.9686C184.711 12.7234 184.14 11.6761 183.277 10.8266C182.434 9.98256 181.425 9.40326 180.251 9.08868C179.323 8.84032 178.429 8.81052 177.567 8.99928C176.705 9.18804 175.91 9.54916 175.181 10.0827C174.452 10.6162 173.82 11.2862 173.286 12.0927C172.773 12.9048 172.39 13.8072 172.139 14.7999C171.872 15.8547 171.781 16.8681 171.865 17.8403C171.97 18.8179 172.227 19.7149 172.637 20.5312C173.067 21.3531 173.624 22.0654 174.308 22.6681C174.997 23.2501 175.815 23.668 176.763 23.9219C177.876 24.2199 179.01 24.2146 180.167 23.9059C181.343 23.6028 182.516 23.0115 183.685 22.132L182.617 26.3511C180.281 27.8454 177.887 28.2641 175.435 27.6074ZM183.666 20.9013L179.246 19.7175L180.038 16.5842L187.982 18.7117L185.118 30.0352L181.594 29.0914L183.666 20.9013Z" fill="#172623"/>
<path d="M204.155 14.0698L208.192 16.0124L206.318 40.3183L202.224 38.348L202.664 32.2756L195.513 28.8345L191.295 33.0891L187.2 31.1187L204.155 14.0698ZM203.227 29.1029L204.28 19.2071L197.46 26.3277L203.227 29.1029Z" fill="#172623"/>
<path d="M220.782 33.0564L212.423 45.0168L208.873 42.3899L221.889 23.7673L224.718 25.8612L225.579 45.1226L234.14 32.8737L237.689 35.5007L224.693 54.097L221.734 51.9079L220.782 33.0564Z" fill="#172623"/>
<path d="M228.353 58.3053L243.94 41.7759L247.065 44.8963L231.477 61.4257L228.353 58.3053Z" fill="#172623"/>
<path d="M238.488 63.9665L258.247 64.2683L250.765 54.4809L253.774 52.0446L264.444 66.0013L261.858 68.0953L242.351 68.1239L249.853 77.9367L246.844 80.373L235.902 66.0605L238.488 63.9665Z" fill="#172623"/>
<path d="M260.034 96.9294L256.659 98.8271L249.26 84.8937L269.064 73.7582L276.328 87.4372L272.952 89.335L267.76 79.5562L262.99 82.2381L267.477 90.6886L264.353 92.4452L259.866 83.9947L254.706 86.8962L260.034 96.9294Z" fill="#172623"/>
<path d="M258.432 103.601L279.882 96.1119L282.467 103.953C283.242 106.303 283.407 108.437 282.961 110.355C282.535 112.266 281.637 113.901 280.266 115.261C278.915 116.613 277.253 117.634 275.279 118.323C273.104 119.083 271.067 119.308 269.168 118.999C267.27 118.691 265.614 117.891 264.2 116.6C262.793 115.329 261.732 113.609 261.017 111.441L258.432 103.601ZM273.886 114.099C275.276 113.614 276.411 112.935 277.291 112.063C278.192 111.184 278.777 110.166 279.047 109.01C279.338 107.847 279.259 106.586 278.811 105.229L277.609 101.582L263.47 106.518L264.672 110.165C265.127 111.543 265.813 112.602 266.731 113.344C267.669 114.078 268.752 114.502 269.98 114.616C271.235 114.742 272.537 114.57 273.886 114.099Z" fill="#172623"/>
</svg>
