<?xml version="1.0" standalone="no"?>
<!DOCTYPE svg PUBLIC "-//W3C//DTD SVG 20010904//EN"
 "http://www.w3.org/TR/2001/REC-SVG-20010904/DTD/svg10.dtd">
<svg version="1.0" xmlns="http://www.w3.org/2000/svg"
 width="512.000000pt" height="512.000000pt" viewBox="0 0 512.000000 512.000000"
 preserveAspectRatio="xMidYMid meet">

<g transform="translate(0.000000,512.000000) scale(0.100000,-0.100000)"
fill="#000000" stroke="none">
<path d="M7 4253 c-2 -5 254 -768 569 -1698 315 -929 574 -1691 574 -1692 0
-2 146 -3 324 -3 l325 0 19 53 c10 28 180 521 378 1094 197 574 361 1043 364
1043 3 0 167 -469 364 -1043 198 -573 368 -1066 378 -1094 l19 -53 324 0 c346
0 335 -2 335 49 0 9 -81 269 -180 577 -194 599 -214 661 -635 1937 l-276 837
-319 0 -319 0 -325 -982 c-178 -541 -348 -1055 -376 -1142 -33 -101 -55 -154
-60 -145 -4 8 -159 510 -344 1117 -185 606 -341 1114 -346 1127 l-10 25 -389
0 c-214 0 -392 -3 -394 -7z"/>
<path d="M4340 4238 c-8 -18 -408 -1326 -460 -1504 -12 -41 -8 -56 161 -578
95 -295 176 -536 179 -536 8 0 898 2623 893 2633 -2 4 -175 7 -384 7 l-379 0
-10 -22z"/>
<path d="M3752 2332 c-18 -59 -32 -113 -32 -121 0 -15 328 -1038 338 -1055 3
-6 22 40 43 102 l37 111 -170 528 c-93 290 -173 531 -177 535 -4 4 -21 -41
-39 -100z"/>
</g>
</svg>
