<svg width="22" height="22" viewBox="0 0 22 22" fill="none" xmlns="http://www.w3.org/2000/svg">
<g clip-path="url(#clip0_935_538)">
<path d="M20.625 2.0606L15.1202 2.06062V0.69043C15.1202 0.310586 14.8125 0.00292969 14.4327 0.00292969C14.0528 0.00292969 13.7452 0.310586 13.7452 0.69043V2.06027H8.24519V0.69043C8.24519 0.310586 7.93753 0.00292969 7.55769 0.00292969C7.17784 0.00292969 6.87019 0.310586 6.87019 0.69043V2.06027H1.375C0.615656 2.06027 0 2.67593 0 3.43527V20.6228C0 21.3821 0.615656 21.9978 1.375 21.9978H20.625C21.3843 21.9978 22 21.3821 22 20.6228V3.43527C22 2.67625 21.3843 2.0606 20.625 2.0606ZM20.625 20.6228H1.375V3.43527H6.87019V4.12793C6.87019 4.50775 7.17784 4.81543 7.55769 4.81543C7.93753 4.81543 8.24519 4.50775 8.24519 4.12793V3.43562H13.7452V4.12827C13.7452 4.50812 14.0528 4.81577 14.4327 4.81577C14.8125 4.81577 15.1202 4.50812 15.1202 4.12827V3.43562H20.625V20.6228ZM15.8125 10.9981H17.1875C17.567 10.9981 17.875 10.6901 17.875 10.3106V8.9356C17.875 8.5561 17.567 8.2481 17.1875 8.2481H15.8125C15.433 8.2481 15.125 8.5561 15.125 8.9356V10.3106C15.125 10.6901 15.433 10.9981 15.8125 10.9981ZM15.8125 16.4978H17.1875C17.567 16.4978 17.875 16.1901 17.875 15.8103V14.4353C17.875 14.0558 17.567 13.7478 17.1875 13.7478H15.8125C15.433 13.7478 15.125 14.0558 15.125 14.4353V15.8103C15.125 16.1904 15.433 16.4978 15.8125 16.4978ZM11.6875 13.7478H10.3125C9.933 13.7478 9.625 14.0558 9.625 14.4353V15.8103C9.625 16.1901 9.933 16.4978 10.3125 16.4978H11.6875C12.067 16.4978 12.375 16.1901 12.375 15.8103V14.4353C12.375 14.0561 12.067 13.7478 11.6875 13.7478ZM11.6875 8.2481H10.3125C9.933 8.2481 9.625 8.5561 9.625 8.9356V10.3106C9.625 10.6901 9.933 10.9981 10.3125 10.9981H11.6875C12.067 10.9981 12.375 10.6901 12.375 10.3106V8.9356C12.375 8.55575 12.067 8.2481 11.6875 8.2481ZM6.1875 8.2481H4.8125C4.433 8.2481 4.125 8.5561 4.125 8.9356V10.3106C4.125 10.6901 4.433 10.9981 4.8125 10.9981H6.1875C6.567 10.9981 6.875 10.6901 6.875 10.3106V8.9356C6.875 8.55575 6.567 8.2481 6.1875 8.2481ZM6.1875 13.7478H4.8125C4.433 13.7478 4.125 14.0558 4.125 14.4353V15.8103C4.125 16.1901 4.433 16.4978 4.8125 16.4978H6.1875C6.567 16.4978 6.875 16.1901 6.875 15.8103V14.4353C6.875 14.0561 6.567 13.7478 6.1875 13.7478Z" fill="black"/>
</g>
<defs>
<clipPath id="clip0_935_538">
<rect width="22" height="22" fill="white"/>
</clipPath>
</defs>
</svg>
