<?xml version="1.0" standalone="no"?>
<!DOCTYPE svg PUBLIC "-//W3C//DTD SVG 20010904//EN"
 "http://www.w3.org/TR/2001/REC-SVG-20010904/DTD/svg10.dtd">
<svg version="1.0" xmlns="http://www.w3.org/2000/svg"
 width="512.000000pt" height="512.000000pt" viewBox="0 0 512.000000 512.000000"
 preserveAspectRatio="xMidYMid meet">

<g transform="translate(0.000000,512.000000) scale(0.100000,-0.100000)"
fill="#000000" stroke="none">
<path d="M1090 4734 c-181 -38 -325 -117 -456 -248 -98 -98 -158 -188 -204
-308 -63 -162 -60 -92 -60 -1618 0 -1526 -3 -1456 60 -1618 47 -121 106 -210
204 -308 98 -98 190 -158 308 -204 162 -63 92 -60 1618 -60 1526 0 1456 -3
1618 60 120 46 210 106 308 204 98 98 158 188 204 308 63 162 60 92 60 1618 0
1526 3 1456 -60 1618 -46 120 -106 210 -204 308 -98 98 -188 158 -308 204
-162 63 -91 60 -1625 59 -1155 0 -1409 -3 -1463 -15z m2865 -359 c162 -34 301
-138 370 -278 67 -137 65 -71 65 -1537 0 -1466 2 -1400 -65 -1537 -69 -140
-208 -244 -370 -278 -105 -22 -2685 -22 -2790 0 -214 45 -375 206 -420 420
-22 105 -22 2685 0 2790 45 212 205 374 415 419 99 22 2693 22 2795 1z"/>
<path d="M2960 3648 c-27 -7 -143 -117 -518 -491 -318 -318 -489 -496 -502
-523 -11 -22 -20 -55 -20 -74 0 -19 9 -52 20 -74 13 -27 184 -205 502 -523
427 -425 488 -483 526 -493 130 -34 252 82 227 218 -6 32 -58 89 -423 454
l-417 418 412 412 c227 227 417 426 422 441 35 92 -28 209 -127 237 -43 12
-55 12 -102 -2z"/>
</g>
</svg>
