<?xml version="1.0" standalone="no"?>
<!DOCTYPE svg PUBLIC "-//W3C//DTD SVG 20010904//EN"
 "http://www.w3.org/TR/2001/REC-SVG-20010904/DTD/svg10.dtd">
<svg version="1.0" xmlns="http://www.w3.org/2000/svg"
 width="512.000000pt" height="512.000000pt" viewBox="0 0 512.000000 512.000000"
 preserveAspectRatio="xMidYMid meet">

<g transform="translate(0.000000,512.000000) scale(0.100000,-0.100000)"
fill="#000000" stroke="none">
<path d="M1214 5106 c-65 -29 -64 -20 -64 -449 0 -266 4 -395 11 -410 32 -63
107 -76 161 -28 l33 29 3 331 3 331 1774 0 1775 0 0 -1775 0 -1775 -259 0
c-143 0 -271 -4 -284 -9 -85 -33 -91 -148 -10 -190 15 -7 131 -11 360 -11
l338 0 27 25 c15 14 30 40 33 57 3 18 4 889 3 1935 l-3 1902 -23 23 -23 23
-1912 2 c-1595 2 -1917 0 -1943 -11z"/>
<path d="M65 3961 c-11 -5 -29 -19 -40 -31 -20 -22 -20 -36 -20 -1946 l0
-1924 28 -27 27 -28 1925 0 1925 0 27 28 28 27 0 1925 0 1925 -28 27 -27 28
-1913 2 c-1051 1 -1921 -2 -1932 -6z m3695 -1976 l0 -1775 -1775 0 -1775 0 0
1775 0 1775 1775 0 1775 0 0 -1775z"/>
</g>
</svg>
