<svg width="15" height="15" viewBox="0 0 15 15" fill="none" xmlns="http://www.w3.org/2000/svg">
<path fill-rule="evenodd" clip-rule="evenodd" d="M8 2H12.5C12.6326 2 12.7598 2.05268 12.8536 2.14645C12.9473 2.24021 13 2.36739 13 2.5V5H8V2ZM7 5V2H2.5C2.36739 2 2.24021 2.05268 2.14645 2.14645C2.05268 2.24021 2 2.36739 2 2.5V5H7ZM2 6V9H7V6H2ZM8 6H13V9H8V6ZM8 10H13V12.5C13 12.6326 12.9473 12.7598 12.8536 12.8536C12.7598 12.9473 12.6326 13 12.5 13H8V10ZM2 12.5V10H7V13H2.5C2.36739 13 2.24021 12.9473 2.14645 12.8536C2.05268 12.7598 2 12.6326 2 12.5ZM1 2.5C1 2.10218 1.15804 1.72064 1.43934 1.43934C1.72064 1.15804 2.10218 1 2.5 1H12.5C12.8978 1 13.2794 1.15804 13.5607 1.43934C13.842 1.72064 14 2.10218 14 2.5V12.5C14 12.8978 13.842 13.2794 13.5607 13.5607C13.2794 13.842 12.8978 14 12.5 14H2.5C2.10218 14 1.72064 13.842 1.43934 13.5607C1.15804 13.2794 1 12.8978 1 12.5V2.5Z" fill="#06352F"/>
</svg>
